<svg width="33" height="32" viewBox="0 0 33 32" fill="none" xmlns="http://www.w3.org/2000/svg">
<path d="M16.1614 0C7.33862 0 0.161377 7.17725 0.161377 16C0.161377 24.8228 7.33862 32 16.1614 32C24.9841 32 32.1614 24.8228 32.1614 16C32.1614 7.17725 24.9841 0 16.1614 0ZM23.1614 17.3333H17.4946V23C17.4946 23.7361 16.8975 24.3333 16.1614 24.3333C15.4253 24.3333 14.8281 23.7361 14.8281 23V17.3333H9.16138C8.42529 17.3333 7.82812 16.7361 7.82812 16C7.82812 15.2639 8.42529 14.6667 9.16138 14.6667H14.8281V9C14.8281 8.26392 15.4253 7.66675 16.1614 7.66675C16.8975 7.66675 17.4946 8.26392 17.4946 9V14.6667H23.1614C23.8975 14.6667 24.4946 15.2639 24.4946 16C24.4946 16.7361 23.8975 17.3333 23.1614 17.3333Z" fill="#4640DE"/>
</svg>
