<svg width="24" height="24" viewBox="0 0 24 24" fill="none" xmlns="http://www.w3.org/2000/svg">
<path d="M6.58695 4.0775C6.58695 2.37847 7.96435 1.00107 9.6636 1.00107C11.3626 1.00107 12.7402 2.37847 12.7402 4.0775C12.7402 5.77653 11.3626 7.15389 9.6636 7.15389C7.96435 7.15394 6.58695 5.77653 6.58695 4.0775ZM11.1421 9.24986C11.1729 8.57996 11.4035 7.95993 11.7746 7.44736C11.5142 7.39283 11.2451 7.36386 10.9689 7.36386H8.35864C8.0833 7.36386 7.81455 7.39261 7.55551 7.44647C7.95033 7.99409 8.1865 8.66292 8.19035 9.38694C8.67028 9.12298 9.22096 8.97268 9.80588 8.97268C10.2804 8.97268 10.732 9.07154 11.1421 9.24986ZM11.6629 9.526C12.5565 10.0864 13.1831 11.0342 13.2977 12.1349C13.6618 12.3051 14.0665 12.4033 14.4952 12.4033C16.0607 12.4033 17.3296 11.1342 17.3296 9.56875C17.3296 8.00309 16.0607 6.7343 14.4952 6.7343C12.944 6.73435 11.6864 7.98062 11.6629 9.526ZM9.80584 15.3298C11.3711 15.3298 12.6401 14.0604 12.6401 12.4954C12.6401 10.9301 11.3711 9.66094 9.80584 9.66094C8.24045 9.66094 6.9709 10.9301 6.9709 12.4954C6.97094 14.0604 8.24045 15.3298 9.80584 15.3298ZM11.0082 15.5228H8.60326C6.60217 15.5228 4.97379 17.151 4.97379 19.1524V22.0939L4.98144 22.14L5.1839 22.2029C7.0937 22.7994 8.75288 22.9989 10.1186 22.9989C12.7856 22.9989 14.3321 22.2384 14.4274 22.1897L14.6168 22.0939H14.6369V19.1523C14.637 17.151 13.0095 15.5228 11.0082 15.5228ZM15.6981 12.5967H13.3113C13.2853 13.5518 12.8777 14.4118 12.2331 15.03C14.012 15.559 15.3134 17.2084 15.3134 19.1568V20.0632C17.6696 19.9765 19.0277 19.309 19.1171 19.264L19.3066 19.1677H19.3267V16.2256C19.327 14.2248 17.6987 12.5967 15.6981 12.5967ZM16.3361 6.67386C17.2298 7.23434 17.8564 8.18222 17.9708 9.28294C18.3349 9.45311 18.7395 9.55112 19.1682 9.55112C20.734 9.55112 22.0028 8.28224 22.0028 6.71698C22.0028 5.15127 20.734 3.88253 19.1682 3.88253C17.6172 3.88235 16.3597 5.12889 16.3361 6.67386ZM20.3709 9.74461H17.9845C17.9586 10.6997 17.551 11.5597 16.9064 12.1778C18.6852 12.7066 19.9867 14.3563 19.9867 16.3047V17.2111C22.3427 17.1245 23.701 16.4572 23.7904 16.4118L23.9796 16.3158H24V13.3734C24.0003 11.3727 22.372 9.74461 20.3709 9.74461ZM4.83236 12.4033C5.38688 12.4033 5.9025 12.2414 6.33977 11.9656C6.47883 11.0594 6.96467 10.2674 7.65843 9.72823C7.66134 9.67504 7.66622 9.62252 7.66622 9.5688C7.66622 8.00314 6.39694 6.73435 4.83236 6.73435C3.26643 6.73435 1.99769 8.00309 1.99769 9.5688C1.99769 11.1346 3.26639 12.4033 4.83236 12.4033ZM7.3779 15.03C6.7363 14.4148 6.3301 13.5594 6.3002 12.61C6.21195 12.6034 6.12434 12.5967 6.03413 12.5967H3.62947C1.62811 12.5967 0 14.2248 0 16.2259V19.1677L0.00743185 19.2135L0.210151 19.2767C1.74192 19.7557 3.10951 19.9758 4.29731 20.0446V19.1565C4.29753 17.2084 5.59869 15.5587 7.3779 15.03Z" fill="#4640DE"/>
</svg>
