<svg width="24" height="24" viewBox="0 0 24 24" fill="none" xmlns="http://www.w3.org/2000/svg">
<path d="M9.89062 12.7031H14.1094V14.1094H9.89062V12.7031Z" fill="#686868"/>
<path d="M19.4709 14.1094H15.5156V14.8125C15.5156 15.201 15.201 15.5156 14.8125 15.5156H9.1875C8.79895 15.5156 8.48438 15.201 8.48438 14.8125V14.1094H4.52911C3.62 14.1094 2.81598 13.5298 2.52814 12.6674L0 5.08173V20.4375C0 21.6006 0.946289 22.5469 2.10938 22.5469H21.8906C23.0537 22.5469 24 21.6006 24 20.4375V5.08228L21.4717 12.6674C21.184 13.5298 20.38 14.1094 19.4709 14.1094Z" fill="#686868"/>
<path d="M14.8125 1.45312H9.1875C8.02441 1.45312 7.07812 2.39941 7.07812 3.5625V4.26562H1.20978L3.86169 12.2225C3.95782 12.5101 4.22626 12.7031 4.52911 12.7031H8.48438V12C8.48438 11.6115 8.79895 11.2969 9.1875 11.2969H14.8125C15.201 11.2969 15.5156 11.6115 15.5156 12V12.7031H19.4709C19.7737 12.7031 20.0422 12.5101 20.1383 12.2225L22.7904 4.26562H16.9219V3.5625C16.9219 2.39941 15.9756 1.45312 14.8125 1.45312ZM8.48438 4.26562V3.5625C8.48438 3.1745 8.7995 2.85938 9.1875 2.85938H14.8125C15.2005 2.85938 15.5156 3.1745 15.5156 3.5625V4.26562H8.48438Z" fill="#686868"/>
</svg>
