<svg width="24" height="24" viewBox="0 0 24 24" fill="none" xmlns="http://www.w3.org/2000/svg">
<g clip-path="url(#clip0)">
<path d="M23.1885 4.72732L15.9167 11.9999L23.1885 19.2722C24.2702 20.3542 24.2702 22.1071 23.1885 23.1891C22.6481 23.7296 21.9395 24 21.2313 24C20.5219 24 19.8133 23.73 19.2733 23.1891L11.9998 15.916L4.7269 23.189C4.18653 23.7295 3.47789 23.9999 2.76905 23.9999C2.06042 23.9999 1.35227 23.7299 0.81141 23.189C-0.270244 22.1075 -0.270244 20.3546 0.81141 19.2721L8.08307 11.9999L0.810997 4.72732C-0.270658 3.64567 -0.270658 1.89245 0.810997 0.810802C1.89244 -0.270023 3.64463 -0.270023 4.72649 0.810802L11.9997 8.08341L19.2724 0.810802C20.3545 -0.270023 22.1069 -0.270023 23.1881 0.810802C24.2702 1.89245 24.2702 3.64567 23.1885 4.72732Z" fill="#333333"/>
</g>
<defs>
<clipPath id="clip0">
<rect width="24" height="24" fill="white"/>
</clipPath>
</defs>
</svg>
