<svg width="16" height="16" viewBox="0 0 16 16" fill="none" xmlns="http://www.w3.org/2000/svg">
<path d="M7.99659 13.8945L0 8.85095V16H16V8.97951L7.99659 13.8945Z" fill="#4640DE"/>
<path d="M2.03125 0V8.90281L8.00406 12.6697L13.9688 9.00656V0L2.03125 0ZM7.99094 5.71875C9.05094 5.71875 9.91281 6.50063 9.91281 7.46156C9.91281 8.27594 9.29375 8.96125 8.45969 9.15156V9.875H7.52219V9.15156C6.68844 8.96125 6.06906 8.27594 6.06906 7.46156H7.00656C7.00656 7.90531 7.44844 8.26656 7.99094 8.26656C8.53375 8.26656 8.97531 7.90531 8.97531 7.46156C8.97531 7.0175 8.53375 6.65625 7.99094 6.65625C6.93125 6.65625 6.06906 5.87437 6.06906 4.91344C6.06906 4.09906 6.68844 3.41375 7.52219 3.22344V2.5H8.45969V3.22344C9.29375 3.41375 9.91281 4.09906 9.91281 4.91344H8.97531C8.97531 4.46969 8.53375 4.10844 7.99094 4.10844C7.44844 4.10844 7.00656 4.46969 7.00656 4.91344C7.00656 5.3575 7.44844 5.71875 7.99094 5.71875Z" fill="#4640DE"/>
<path d="M1.09375 5.55286L0 6.3942V7.62154L1.09375 8.31139V5.55286Z" fill="#4640DE"/>
<path d="M14.9062 5.55286V8.43089L16 7.75923V6.3942L14.9062 5.55286Z" fill="#4640DE"/>
</svg>
